<?xml version="1.0" encoding="UTF-8" standalone="no"?>
<!DOCTYPE svg PUBLIC "-//W3C//DTD SVG 1.1//EN" "http://www.w3.org/Graphics/SVG/1.1/DTD/svg11.dtd">
<svg width="100%" height="100%" viewBox="0 0 169 105" version="1.1" xmlns="http://www.w3.org/2000/svg" xmlns:xlink="http://www.w3.org/1999/xlink" xml:space="preserve" xmlns:serif="http://www.serif.com/" style="fill-rule:evenodd;clip-rule:evenodd;stroke-miterlimit:10;">
    <g transform="matrix(1,0,0,1,-328.6,-240.6)">
        <rect x="328.6" y="240.6" width="168.4" height="104.5" style="fill:white;stroke:black;stroke-width:0.37px;"/>
    </g>
    <g transform="matrix(1,0,0,1,-328.6,-240.95)">
        <path d="M410.4,322.3C410.3,322.4 410.3,322.6 410.2,323L410.2,326C410.2,326.7 410.1,327.1 409.8,327.5C409.4,328.2 408.6,328.5 407.6,328.5C407,328.5 406.5,328.4 406.1,328.1C405.4,327.7 405.1,327.1 405.1,326L405.1,322.6C405.1,322.3 404.9,322.1 404.5,322.1L404.5,321.8L407.1,321.8L407.1,322.1C406.8,322.1 406.7,322.2 406.6,322.4C406.5,322.5 406.5,322.7 406.5,323.2C406.5,323.8 406.5,324.4 406.5,325.1C406.5,326.8 406.5,327.1 406.8,327.5C407,327.8 407.4,327.9 407.9,327.9C408.6,327.9 409.2,327.6 409.4,326.9C409.5,326.5 409.5,326.2 409.5,325L409.5,324C409.5,322.9 409.5,322.5 409.4,322.4C409.3,322.2 409.2,322.1 408.9,322.1L408.9,321.8L410.9,321.8L410.9,322.1C410.7,322.1 410.5,322.1 410.4,322.3Z" style="fill:rgb(26,23,27);fill-rule:nonzero;"/>
        <path d="M416.5,328.3C416.4,328.4 416.3,328.5 415.8,328.5L412,328.5L412,328.2C412.4,328.2 412.6,327.9 412.7,327.5C412.7,327.2 412.7,326.9 412.7,326.4L412.7,323.6C412.7,323.1 412.7,322.9 412.6,322.6C412.5,322.4 412.4,322.2 412,322.2L412,321.9L416.7,321.9L416.7,323.5L416.4,323.5C416.4,322.7 416,322.5 414.8,322.5C414.6,322.5 414.3,322.5 414.1,322.5L414.1,324.7C414.2,324.7 414.3,324.7 414.5,324.7C415.5,324.7 415.8,324.6 415.9,324L416.2,324L416.2,326L415.9,326C415.9,325.5 415.6,325.3 414.6,325.3C414.4,325.3 414.3,325.3 414.1,325.3C414.1,325.9 414.1,326.5 414.1,327.2C414.1,327.6 414.1,327.7 414.4,327.8C414.5,327.8 414.8,327.8 415.1,327.8C416.2,327.8 416.5,327.6 416.8,326.8L417.2,326.9C416.8,327.5 416.6,328.1 416.5,328.3Z" style="fill:rgb(26,23,27);fill-rule:nonzero;"/>
        <path d="M425.8,322.3C425.8,321.4 425.3,321.1 423.9,321.1C423.6,321.1 423.4,321.1 423.1,321.1C423.1,321.9 423.1,322.5 423.1,323.8C423.4,323.8 423.5,323.8 423.7,323.8C424.8,323.8 425.1,323.6 425.2,323L425.6,323L425.6,325.3L425.2,325.3C425.1,324.6 424.9,324.4 423.6,324.4C423.4,324.4 423.3,324.4 423.1,324.4L423.1,326.6C423.1,327.2 423.1,327.8 423.9,327.9L423.9,328.2L423.6,328.2L421,328.2L420.7,328.2L420.7,327.9C421.2,327.9 421.5,327.6 421.5,327C421.5,326.7 421.5,326.4 421.5,325.2L421.5,322.2C421.5,321.6 421.5,321.3 421.4,321C421.3,320.7 421.1,320.6 420.7,320.5L420.7,320.2L426.3,320.2L426.3,322.1L425.8,322.3Z" style="fill:rgb(26,23,27);fill-rule:nonzero;"/>
        <path d="M432.5,328.5C432.2,328.5 431.9,328.5 431.7,328.3C431.4,328.1 431,327.5 430.8,327.2C430.5,326.6 430.1,326 429.7,325.5L429.6,325.5C429.5,325.5 429.4,325.5 429.3,325.5L429.3,326.8C429.3,327.3 429.3,327.5 429.4,327.8C429.5,328 429.7,328.2 430,328.2L430,328.5L429.8,328.5L427.6,328.5L427.4,328.5L427.4,328.2C427.6,328.2 427.7,328.2 427.9,328C428,327.9 428.1,327.7 428.1,327.5C428.1,327.2 428.1,327 428.1,326L428.1,324.3C428.1,323.1 428.1,322.8 428,322.5C428,322.3 427.7,322.1 427.4,322.1L427.4,321.8L430.4,321.8C431.1,321.8 431.5,321.9 431.8,322.1C432.2,322.3 432.4,322.9 432.4,323.4C432.4,324.2 431.9,324.9 431,325.2C431.4,325.7 431.7,326.1 432,326.7C432.3,327.2 432.6,327.6 432.9,327.9C433,328 433.1,328.1 433.3,328.1L433.3,328.4C433,328.5 432.8,328.5 432.5,328.5ZM429.9,322.2C429.7,322.2 429.5,322.2 429.3,322.3C429.3,322.9 429.3,323.9 429.3,324.8C429.4,324.8 429.6,324.8 429.7,324.8C430.5,324.8 431.1,324.3 431.1,323.5C431.1,322.8 430.6,322.2 429.9,322.2Z" style="fill:rgb(26,23,27);fill-rule:nonzero;"/>
        <path d="M439.7,328.4L437.6,328.4L437.4,328.4L437.4,328.1C437.7,328.1 437.9,327.9 437.9,327.7C437.9,327.6 437.9,327.5 437.8,327.2C437.7,326.9 437.6,326.6 437.5,326.3L435.6,326.3L435.4,326.9C435.3,327.3 435.2,327.7 435.2,327.8C435.2,328.1 435.3,328.2 435.6,328.2L435.6,328.5L433.6,328.5L433.6,328.2C433.7,328.2 433.8,328.2 433.9,328.1C434.1,328 434.3,327.6 434.6,326.8L435.5,324.4C435.7,323.8 436.1,322.7 436.4,321.9L437.1,321.9C437.2,322.2 437.4,322.7 437.5,323L438.9,326.6C439.1,327.2 439.3,327.6 439.4,327.8C439.5,328 439.7,328.1 439.9,328.2L439.9,328.5L439.7,328.5L439.7,328.4ZM436.5,323.5C436.3,324.2 435.9,325 435.8,325.5L437.3,325.5L436.5,323.5Z" style="fill:rgb(26,23,27);fill-rule:nonzero;"/>
        <path d="M446.8,322.3C446.7,322.5 446.7,322.6 446.7,323.1L446.7,328.3L446,328.3C445.4,327.5 444,325.8 444,325.8C443.9,325.6 442.6,324.1 442,323.3C442,323.5 442,323.4 442,324L442,326.8C442,327.2 442,327.4 442.1,327.6C442.2,327.8 442.3,327.9 442.6,327.9L442.6,328.2L440.5,328.2L440.5,327.9C441.1,327.9 441.2,327.4 441.2,326.8C441.2,326.4 441.2,326 441.2,325.4L441.2,323.3C441.2,322.5 441.2,322.3 441,322.1C440.9,322 440.8,321.9 440.5,321.9L440.5,321.6L442.2,321.6C442.3,321.8 442.5,322 443.2,322.8C444.2,324 445,325 445.9,326L445.9,324C445.9,323 445.9,322.8 445.9,322.5C445.9,322.2 445.7,322 445.3,322L445.3,321.7L447.3,321.7L447.3,322C447.1,322 447,322.1 446.8,322.3Z" style="fill:rgb(26,23,27);fill-rule:nonzero;"/>
        <path d="M453.8,328.2C453.2,328.4 452.6,328.5 451.8,328.5L451.7,328.9C451.7,328.9 451.8,328.9 451.9,328.9C452.3,328.9 452.5,329.1 452.5,329.5C452.5,330 452.1,330.4 451.4,330.4C451.2,330.4 451,330.4 450.8,330.3L450.9,329.9C451,329.9 451.1,330 451.2,330C451.5,330 451.7,329.9 451.7,329.6C451.7,329.4 451.6,329.3 451.5,329.3C451.4,329.3 451.4,329.3 451.3,329.4L451.1,329.4L451.3,328.6C450.4,328.5 449.8,328.3 449.3,327.7C448.7,327.1 448.4,326.2 448.4,325.2C448.4,323.1 449.8,321.7 452.1,321.7C452.8,321.7 453.4,321.8 454,322L454,323.4L453.5,323.4C453.4,322.7 452.8,322.3 451.9,322.3C450.5,322.3 449.6,323.2 449.6,324.8C449.6,326.6 450.6,327.9 452,327.9C452.8,327.9 453.4,327.5 453.6,326.7L454,326.8C453.9,327.1 453.9,327.6 453.8,328.2Z" style="fill:rgb(26,23,27);fill-rule:nonzero;"/>
        <path d="M460.8,328.4L458.6,328.4L458.4,328.4L458.4,328.1C458.7,328.1 458.9,327.9 458.9,327.7C458.9,327.6 458.9,327.5 458.8,327.2C458.7,326.9 458.6,326.6 458.5,326.3L456.6,326.3L456.4,326.9C456.3,327.3 456.2,327.7 456.2,327.8C456.2,328.1 456.3,328.2 456.6,328.2L456.6,328.5L454.6,328.5L454.6,328.2C454.7,328.2 454.8,328.2 454.9,328.1C455.1,328 455.3,327.6 455.6,326.8L456.5,324.4C456.7,323.8 457.1,322.7 457.4,321.9L458.1,321.9C458.2,322.2 458.4,322.7 458.5,323L459.9,326.6C460.1,327.2 460.3,327.6 460.4,327.8C460.5,328 460.7,328.1 460.9,328.2L460.9,328.5L460.8,328.5L460.8,328.4ZM457.5,323.5C457.3,324.2 456.9,325 456.7,325.5L458.2,325.5L457.5,323.5Z" style="fill:rgb(26,23,27);fill-rule:nonzero;"/>
        <path d="M464,328.4L461.8,328.4L461.6,328.4L461.6,328.1C462.1,328.1 462.2,327.8 462.3,327.4C462.3,327.1 462.3,326.9 462.3,325.9L462.3,324.2C462.3,324 462.3,323.7 462.3,323.4C462.3,322.9 462.3,322.7 462.2,322.4C462.1,322.2 461.9,322 461.6,322L461.6,321.7L464.2,321.7L464.2,322C463.8,322 463.6,322.3 463.5,322.7L463.5,325.9C463.5,327.2 463.5,327.4 463.6,327.7C463.7,327.9 463.9,328.1 464.2,328.1L464.2,328.4L464,328.4Z" style="fill:rgb(26,23,27);fill-rule:nonzero;"/>
        <path d="M467.1,328.5C466.5,328.5 466.1,328.4 465.4,328.2C465.4,327.8 465.3,327.3 465.2,326.8L465.6,326.8C465.8,327.6 466.4,328 467.1,328C467.8,328 468.3,327.6 468.3,327.1C468.3,326.7 468,326.4 467.6,326.1L466.6,325.4C465.9,325 465.5,324.5 465.5,323.6C465.5,322.5 466.3,321.8 467.7,321.8C468.3,321.8 468.9,321.9 469.3,322.1L469.3,323.4L468.9,323.4C468.8,322.7 468.3,322.3 467.6,322.3C467,322.3 466.6,322.7 466.6,323.2C466.6,323.7 466.9,324 467.4,324.3L468.2,324.8C469,325.3 469.5,325.8 469.5,326.6C469.5,327.8 468.5,328.5 467.1,328.5Z" style="fill:rgb(26,23,27);fill-rule:nonzero;"/>
        <path d="M475.2,328.3C475.1,328.4 475,328.5 474.5,328.5L470.7,328.5L470.7,328.2C471.1,328.2 471.3,327.9 471.4,327.5C471.4,327.2 471.4,326.9 471.4,326.4L471.4,323.6C471.4,323.1 471.4,322.9 471.3,322.6C471.2,322.4 471.1,322.2 470.7,322.2L470.7,321.9L475.4,321.9L475.4,323.5L475,323.5C475,322.7 474.6,322.5 473.4,322.5C473.2,322.5 472.9,322.5 472.7,322.5L472.7,324.7C472.8,324.7 472.9,324.7 473.1,324.7C474.1,324.7 474.4,324.6 474.5,324L474.8,324L474.8,326L474.5,326C474.5,325.5 474.2,325.3 473.2,325.3C473,325.3 472.9,325.3 472.7,325.3C472.7,325.9 472.7,326.5 472.7,327.2C472.7,327.6 472.7,327.7 473,327.8C473.1,327.8 473.4,327.8 473.7,327.8C474.8,327.8 475.1,327.6 475.4,326.8L475.8,326.9C475.4,327.5 475.3,328.1 475.2,328.3Z" style="fill:rgb(26,23,27);fill-rule:nonzero;"/>
        <path d="M407,311.5C406.8,311.5 406.8,311.4 406.7,310.9C406,311.3 405.5,311.5 404.9,311.5C404.3,311.5 404,311.2 404,310.7C404,310.2 404.2,309.5 404.6,308.9C405.1,308.1 405.8,307.6 406.8,307.6C407.2,307.6 407.6,307.7 408,307.8L408,307.9C407.7,309 407.4,310.2 407.4,310.7C407.4,310.9 407.4,311.1 407.6,311.1C407.7,311.1 407.9,311.1 408.1,311L408.1,311.3C407.7,311.4 407.2,311.5 407,311.5ZM406.6,307.9C406.2,307.9 405.8,308.2 405.5,308.7C405.1,309.3 404.9,310.1 404.9,310.6C404.9,310.9 405,311 405.3,311C405.6,311 406.3,310.7 406.5,310.5C406.6,310.4 406.7,310.2 406.8,309.8C406.9,309.2 407.1,308.7 407.2,308C406.9,308 406.7,307.9 406.6,307.9Z" style="fill:rgb(26,23,27);fill-rule:nonzero;"/>
        <path d="M411.4,305.8C411.1,307.1 410.8,308.5 410.5,309.9C410.4,310.3 410.4,310.6 410.4,310.8C410.4,310.9 410.4,311 410.6,311C410.7,311 410.8,311 411.1,310.9L411.1,311.1C410.6,311.3 410,311.4 409.8,311.4C409.6,311.4 409.5,311.3 409.5,311.1C409.5,311 409.5,310.8 409.7,310.2C410,308.9 410.3,307.5 410.6,306.3C410.7,305.8 410.7,305.5 410.7,305.4C410.7,305.3 410.7,305.3 410.6,305.3C410.5,305.3 410.3,305.3 410.2,305.4L410.2,305.1C410.7,304.9 411.2,304.8 411.5,304.8C411.6,304.8 411.7,304.8 411.7,304.9C411.5,305.1 411.5,305.3 411.4,305.8Z" style="fill:rgb(26,23,27);fill-rule:nonzero;"/>
        <path d="M413.8,306.6C413.5,306.6 413.3,306.4 413.3,306.2C413.3,305.9 413.5,305.6 413.9,305.6C414.2,305.6 414.4,305.8 414.4,306C414.4,306.3 414.1,306.6 413.8,306.6ZM412.7,311.5C412.5,311.5 412.4,311.4 412.4,311.2C412.4,311.1 412.4,311 412.5,310.8C412.6,310.3 412.8,309.6 412.9,309.2C413,308.7 413.1,308.4 413.1,308.2C413.1,308.1 413.1,308 413,308C412.9,308 412.8,308 412.6,308.1L412.6,307.9C413.1,307.7 413.6,307.6 413.9,307.6C414,307.6 414.1,307.6 414.1,307.7C414.1,307.8 414.1,308.1 413.9,308.8L413.8,309.4C413.6,310.3 413.5,310.7 413.5,310.8C413.5,310.9 413.6,311 413.7,311C413.8,311 413.9,311 414.2,310.9L414.2,311.1C413.6,311.4 413,311.5 412.7,311.5Z" style="fill:rgb(26,23,27);fill-rule:nonzero;"/>
        <path d="M417.6,308.1L416.8,308.1L416.4,310.1C416.3,310.6 416.3,310.7 416.3,310.8C416.3,310.9 416.3,311 416.5,311C416.5,311 416.7,311 416.9,310.9L417,310.9L417,311.2C416.5,311.4 416,311.5 415.7,311.5C415.5,311.5 415.4,311.4 415.4,311.2C415.4,311.1 415.4,310.8 415.5,310.5C415.6,310.2 415.6,309.9 415.7,309.5L416,308.1L415.5,308.1L415.5,307.8C416.1,307.7 416.4,307.2 416.6,306.6L417.1,306.5L416.9,307.6L417.7,307.6L417.6,308.1Z" style="fill:rgb(26,23,27);fill-rule:nonzero;"/>
        <path d="M420.6,306.9L420.3,306.7L421.5,305.4L422.4,305.6L420.6,306.9ZM419.5,309.8C419.5,309.8 419.4,309.8 419.2,309.8C419.2,310 419.2,310.1 419.2,310.2C419.2,310.7 419.4,310.9 419.7,310.9C420,310.9 420.4,310.8 421,310.4L421.1,310.7C420.4,311.1 419.8,311.3 419.4,311.3C418.8,311.3 418.5,311 418.5,310.3C418.5,308.7 419.6,307.3 420.8,307.3C421.4,307.3 421.8,307.6 421.8,308C421.7,309.2 420.8,309.8 419.5,309.8ZM420.5,307.9C420.1,307.9 419.6,308.5 419.3,309.5L419.4,309.5C420.3,309.5 421,309 421,308.4C421,308.1 420.8,307.9 420.5,307.9Z" style="fill:rgb(26,23,27);fill-rule:nonzero;"/>
        <path d="M439.1,306.3L438.8,306.3C438.8,306.2 438.8,306.1 438.8,306.1C438.8,305.9 438.8,305.8 438.6,305.7C438.4,305.5 438.1,305.5 437.4,305.5C437.2,305.5 436.9,305.5 436.7,305.5C436.5,306.3 436.4,307.1 436.2,307.9C436.4,307.9 436.5,307.9 436.7,307.9C437.8,307.9 438,307.8 438.2,307.2L438.4,307.2C438.3,307.8 438.1,308.4 438.1,309.1L437.9,309.1L437.9,309C437.9,308.9 437.9,308.7 437.7,308.6C437.6,308.5 437.4,308.5 436.8,308.5C436.5,308.5 436.4,308.5 436.2,308.5L436.1,309.1C435.9,310 435.9,310.5 435.9,310.7C435.9,311.1 436.1,311.3 436.4,311.3L436.4,311.5L436,311.5C436,311.5 435.5,311.5 435.2,311.5C434.8,311.5 434.1,311.5 434,311.5L433.9,311.5L433.9,311.3C434.2,311.3 434.3,311.2 434.5,311C434.7,310.8 434.7,310.6 434.9,310C435,309.5 435.1,309.2 435.3,308.2L435.4,307.5C435.5,306.7 435.6,306.3 435.6,306C435.6,305.6 435.5,305.4 435.1,305.4L435.1,305.2L439.4,305.2C439.3,305.4 439.2,305.9 439.1,306.3Z" style="fill:rgb(26,23,27);fill-rule:nonzero;"/>
        <path d="M442.4,308.7L442.1,308.7C442.1,308.6 442.1,308.5 442.1,308.3C442.1,308.1 442,308 441.7,308C441.6,308 441.4,308.1 441.3,308.2C441,308.6 440.8,309.3 440.6,310.4L440.4,311.3C440.1,311.3 439.9,311.3 439.6,311.4C439.7,311.1 439.7,310.8 439.8,310.4L440,309.5C440.1,308.9 440.2,308.5 440.2,308.3C440.2,308.1 440.2,308 440,308C440,308 439.9,308 439.8,308L439.6,308.1L439.6,307.8C440.1,307.6 440.6,307.5 440.8,307.5C440.9,307.5 440.9,307.5 441,307.6C441,307.7 441,307.8 441,308C441.4,307.7 441.8,307.5 442.1,307.5C442.3,307.5 442.5,307.6 442.7,307.7C442.6,308.1 442.5,308.4 442.4,308.7Z" style="fill:rgb(26,23,27);fill-rule:nonzero;"/>
        <path d="M446.2,311.5C446.1,311.5 446,311.4 445.9,310.9C445.2,311.3 444.7,311.5 444.1,311.5C443.5,311.5 443.2,311.2 443.2,310.7C443.2,310.2 443.4,309.5 443.8,308.9C444.3,308.1 445,307.6 446,307.6C446.4,307.6 446.8,307.7 447.2,307.8L447.2,307.9C446.9,309 446.6,310.2 446.6,310.7C446.6,310.9 446.6,311.1 446.8,311.1C446.9,311.1 447.1,311.1 447.3,311L447.3,311.3C446.9,311.4 446.4,311.5 446.2,311.5ZM445.8,307.9C445.4,307.9 445,308.2 444.7,308.7C444.4,309.3 444.1,310.1 444.1,310.6C444.1,310.9 444.2,311 444.5,311C444.8,311 445.5,310.7 445.7,310.5C445.8,310.4 445.9,310.2 446,309.8C446.1,309.2 446.3,308.7 446.4,308C446.2,308 446,307.9 445.8,307.9Z" style="fill:rgb(26,23,27);fill-rule:nonzero;"/>
        <path d="M450.9,308.1L450.1,308.1L449.7,310.1C449.6,310.6 449.6,310.7 449.6,310.8C449.6,310.9 449.6,311 449.8,311C449.8,311 450,311 450.2,310.9L450.3,310.9L450.3,311.2C449.8,311.4 449.3,311.5 449,311.5C448.8,311.5 448.7,311.4 448.7,311.2C448.7,311.1 448.7,310.8 448.8,310.5C448.9,310.2 448.9,309.9 449,309.5L449.3,308.1L448.8,308.1L448.8,307.8C449.4,307.7 449.7,307.2 449.9,306.6L450.3,306.5L450.1,307.6L450.9,307.6L450.9,308.1Z" style="fill:rgb(26,23,27);fill-rule:nonzero;"/>
        <path d="M452.8,309.8C452.8,309.8 452.7,309.8 452.5,309.8C452.5,310 452.5,310.1 452.5,310.2C452.5,310.7 452.7,310.9 453,310.9C453.3,310.9 453.7,310.8 454.3,310.4L454.4,310.7C453.7,311.1 453.2,311.3 452.6,311.3C452,311.3 451.7,311 451.7,310.3C451.7,308.7 452.8,307.3 454,307.3C454.6,307.3 455,307.6 455,308C455,309.2 454.1,309.8 452.8,309.8ZM453.8,307.9C453.4,307.9 452.8,308.5 452.6,309.5L452.7,309.5C453.6,309.5 454.3,309 454.3,308.4C454.3,308.1 454.1,307.9 453.8,307.9Z" style="fill:rgb(26,23,27);fill-rule:nonzero;"/>
        <path d="M458.9,308.7L458.6,308.7C458.6,308.6 458.6,308.5 458.6,308.3C458.6,308.1 458.5,308 458.2,308C458.1,308 457.9,308.1 457.8,308.2C457.5,308.6 457.3,309.3 457.1,310.4L456.9,311.3C456.6,311.3 456.5,311.3 456.1,311.4C456.2,311.1 456.2,310.8 456.3,310.4L456.5,309.5C456.6,308.9 456.7,308.5 456.7,308.3C456.7,308.1 456.7,308 456.6,308C456.6,308 456.5,308 456.4,308L456.2,308.1L456.2,307.8C456.7,307.6 457.2,307.5 457.4,307.5C457.5,307.5 457.5,307.5 457.6,307.6C457.6,307.7 457.6,307.8 457.6,308C458,307.7 458.4,307.5 458.7,307.5C458.9,307.5 459.1,307.6 459.3,307.7C459.1,308.1 459,308.4 458.9,308.7Z" style="fill:rgb(26,23,27);fill-rule:nonzero;"/>
        <path d="M462.8,311.5C462.6,311.5 462.5,311.4 462.5,311.2C462.5,311.1 462.5,310.9 462.6,310.4L462.7,310C463,308.8 463,308.4 463,308.2C463,308 463,308 462.8,308C462.7,308 462.4,308.1 462.1,308.2C461.8,308.4 461.6,308.6 461.5,308.7C461.4,308.8 461.4,309.1 461.2,309.6C461.1,310.3 461,310.8 460.9,311.2C460.5,311.2 460.4,311.2 460.1,311.3C460.3,310.6 460.4,310 460.6,309.3C460.8,308.6 460.8,308.3 460.8,308.2C460.8,308 460.8,307.9 460.6,307.9C460.5,307.9 460.4,307.9 460.1,308L460.1,307.8C460.5,307.6 461.1,307.5 461.3,307.5C461.5,307.5 461.6,307.6 461.6,308.1L461.6,308.2C462.3,307.8 463.1,307.6 463.6,307.6C463.9,307.6 464,307.7 464,307.8C464,308 464,308.3 463.8,309.1C463.7,309.5 463.6,310 463.6,310.2C463.6,310.5 463.5,310.6 463.5,310.7C463.5,310.8 463.6,310.9 463.7,310.9C463.8,310.9 463.9,310.9 464.2,310.8L464.2,311.1C463.6,311.4 463,311.5 462.8,311.5Z" style="fill:rgb(26,23,27);fill-rule:nonzero;"/>
        <path d="M466.9,306.6C466.6,306.6 466.4,306.4 466.4,306.2C466.4,305.9 466.6,305.6 467,305.6C467.3,305.6 467.5,305.8 467.5,306C467.5,306.3 467.2,306.6 466.9,306.6ZM465.8,311.5C465.6,311.5 465.5,311.4 465.5,311.2C465.5,311.1 465.5,311 465.6,310.8C465.7,310.3 465.9,309.6 466,309.2C466.1,308.7 466.2,308.4 466.2,308.2C466.2,308.1 466.2,308 466.1,308C466,308 465.9,308 465.7,308.1L465.7,307.9C466.2,307.7 466.7,307.6 467,307.6C467.1,307.6 467.2,307.6 467.2,307.7C467.2,307.8 467.2,308.1 467,308.8L466.9,309.4C466.7,310.3 466.6,310.7 466.6,310.8C466.6,310.9 466.7,311 466.8,311C466.9,311 467,311 467.3,310.9L467.3,311.1C466.6,311.4 466.1,311.5 465.8,311.5Z" style="fill:rgb(26,23,27);fill-rule:nonzero;"/>
        <path d="M470.7,308.1L469.9,308.1L469.5,310.1C469.4,310.6 469.4,310.7 469.4,310.8C469.4,310.9 469.4,311 469.6,311C469.6,311 469.8,311 470,310.9L470.1,310.9L470.1,311.2C469.6,311.4 469.1,311.5 468.8,311.5C468.6,311.5 468.5,311.4 468.5,311.2C468.5,311.1 468.5,310.8 468.6,310.5C468.7,310.2 468.7,309.9 468.8,309.5L469.1,308.1L468.6,308.1L468.6,307.8C469.2,307.7 469.5,307.2 469.7,306.6L470.1,306.5L469.9,307.6L470.7,307.6L470.7,308.1Z" style="fill:rgb(26,23,27);fill-rule:nonzero;"/>
        <path d="M473.7,306.9L473.4,306.7L474.6,305.4L475.5,305.6L473.7,306.9ZM472.7,309.8C472.7,309.8 472.6,309.8 472.4,309.8C472.4,310 472.4,310.1 472.4,310.2C472.4,310.7 472.6,310.9 472.9,310.9C473.2,310.9 473.6,310.8 474.2,310.4L474.3,310.7C473.6,311.1 473.1,311.3 472.5,311.3C471.9,311.3 471.6,311 471.6,310.3C471.6,308.7 472.7,307.3 473.9,307.3C474.5,307.3 474.9,307.6 474.9,308C474.8,309.2 473.9,309.8 472.7,309.8ZM473.7,307.9C473.3,307.9 472.8,308.5 472.5,309.5L472.6,309.5C473.5,309.5 474.2,309 474.2,308.4C474.2,308.1 473.9,307.9 473.7,307.9Z" style="fill:rgb(26,23,27);fill-rule:nonzero;"/>
        <path d="M428,309.7C428.6,309.7 429.2,309.2 429.2,308.5C429.2,307.9 428.7,307.3 428,307.3C427.4,307.3 426.8,307.8 426.8,308.5C426.8,309.2 427.4,309.7 428,309.7Z" style="fill:rgb(26,23,27);fill-rule:nonzero;"/>
        <g>
            <rect x="352.7" y="258.4" width="121.7" height="40.9" style="fill:white;"/>
            <path d="M358.9,328.5C358.5,328.5 358.2,328.5 358,328.3C357.6,328.1 357.2,327.3 357,326.9C356.6,326.2 356.1,325.4 355.7,324.8C355.7,324.8 355.6,324.8 355.5,324.8C355.4,324.8 355.3,324.8 355.2,324.8L355.2,326.4C355.2,327 355.2,327.3 355.3,327.6C355.4,327.9 355.6,328.1 356,328.1L356,328.4L355.7,328.4L353.1,328.4L352.8,328.4L352.8,328.1C353.1,328.1 353.2,328 353.4,327.9C353.5,327.8 353.6,327.5 353.6,327.3C353.6,327 353.6,326.7 353.6,325.5L353.6,323.5C353.6,322 353.6,321.7 353.5,321.3C353.4,321 353.2,320.9 352.8,320.8L352.8,320.5L356.4,320.5C357.2,320.5 357.7,320.6 358.1,320.9C358.5,321.2 358.8,321.8 358.8,322.5C358.8,323.5 358.2,324.3 357,324.7C357.4,325.3 357.8,325.8 358.2,326.5C358.6,327.1 359,327.6 359.3,327.9C359.4,328.1 359.6,328.1 359.8,328.2L359.8,328.5C359.6,328.5 359.3,328.5 358.9,328.5ZM355.9,320.9C355.7,320.9 355.5,320.9 355.2,321C355.2,321.7 355.2,323 355.2,324C355.3,324 355.5,324 355.7,324C356.7,324 357.3,323.4 357.3,322.5C357.3,321.6 356.7,320.9 355.9,320.9Z" style="fill:rgb(26,23,27);fill-rule:nonzero;"/>
            <path d="M363,321.1L362.6,320.8L363.6,319.4L364.7,319.6L363,321.1ZM365.1,328.3C365,328.4 364.9,328.5 364.4,328.5L360.6,328.5L360.6,328.2C361,328.2 361.2,327.9 361.3,327.5C361.3,327.2 361.3,326.9 361.3,326.4L361.3,323.6C361.3,323.1 361.3,322.9 361.2,322.6C361.1,322.4 361,322.2 360.6,322.2L360.6,321.9L365.3,321.9L365.3,323.5L365,323.5C365,322.7 364.6,322.5 363.4,322.5C363.2,322.5 362.9,322.5 362.7,322.5L362.7,324.7C362.8,324.7 362.9,324.7 363.1,324.7C364.1,324.7 364.4,324.6 364.5,324L364.8,324L364.8,326L364.5,326C364.5,325.5 364.2,325.3 363.2,325.3C363,325.3 362.9,325.3 362.7,325.3C362.7,325.9 362.7,326.5 362.7,327.2C362.7,327.6 362.7,327.7 363,327.8C363.1,327.8 363.4,327.8 363.7,327.8C364.8,327.8 365.1,327.6 365.4,326.8L365.8,326.9C365.4,327.5 365.3,328.1 365.1,328.3Z" style="fill:rgb(26,23,27);fill-rule:nonzero;"/>
            <path d="M369.3,325.4C369.2,325.4 369.2,325.4 369,325.4L368.8,324.9C369.7,324.9 370.2,324.4 370.2,323.6C370.2,322.8 369.7,322.2 368.9,322.2C368.8,322.2 368.7,322.2 368.5,322.2L368.5,325.7C368.5,327 368.5,327.2 368.6,327.5C368.7,327.7 368.8,327.9 369.2,327.9L369.2,328.2L369,328.2L366.8,328.2L366.6,328.2L366.6,327.9C367,327.9 367.2,327.6 367.3,327.2C367.3,326.9 367.3,326.7 367.3,325.7L367.3,323.2C367.3,322.7 367.3,322.5 367.2,322.2C367.1,322 367,321.8 366.6,321.8L366.6,321.5C366.7,321.5 366.6,321.5 367,321.5L369.2,321.5C370.6,321.5 371.5,322.2 371.5,323.3C371.7,324.7 370.7,325.4 369.3,325.4Z" style="fill:rgb(26,23,27);fill-rule:nonzero;"/>
            <path d="M378.4,322.3C378.3,322.4 378.3,322.6 378.2,323L378.2,326C378.2,326.7 378.1,327.1 377.8,327.5C377.4,328.2 376.6,328.5 375.6,328.5C375,328.5 374.5,328.4 374.1,328.1C373.4,327.7 373.1,327.1 373.1,326L373.1,322.6C373.1,322.3 372.9,322.1 372.4,322.1L372.4,321.8L375,321.8L375,322.1C374.7,322.1 374.6,322.2 374.5,322.4C374.4,322.5 374.4,322.7 374.4,323.2C374.4,323.8 374.4,324.4 374.4,325.1C374.4,326.8 374.4,327.1 374.7,327.5C374.9,327.8 375.3,327.9 375.8,327.9C376.5,327.9 377.1,327.6 377.3,326.9C377.4,326.5 377.4,326.2 377.4,325L377.4,324C377.4,322.9 377.4,322.5 377.3,322.4C377.2,322.2 377.1,322.1 376.8,322.1L376.8,321.8L378.8,321.8L378.8,322.1C378.7,322.1 378.6,322.1 378.4,322.3Z" style="fill:rgb(26,23,27);fill-rule:nonzero;"/>
            <path d="M384.6,327.9C384.2,328.2 383.6,328.4 382.6,328.4L380.1,328.4L380,328.4L380,328.1C380.4,328.1 380.6,327.8 380.7,327.4C380.7,327.1 380.7,326.9 380.7,325.9L380.7,324C380.7,323.1 380.7,322.7 380.6,322.4C380.5,322.2 380.3,322 380,322L380,321.7L383.4,321.7C384.3,321.7 385.2,322.1 385.2,323.2C385.2,323.9 384.7,324.5 383.8,324.7C384.8,324.9 385.4,325.5 385.4,326.5C385.3,327.1 385,327.6 384.6,327.9ZM382.4,322.3C382.2,322.3 382.1,322.3 381.9,322.3C381.9,322.9 381.9,324.1 381.9,324.5C382,324.5 382.1,324.5 382.3,324.5C383.3,324.5 383.8,324.1 383.8,323.4C383.8,322.7 383.3,322.3 382.4,322.3ZM382.4,325.1C382.3,325.1 382.1,325.1 381.8,325.1L381.8,326.5C381.8,327 381.8,327.3 381.9,327.5C382,327.7 382.2,327.8 382.6,327.8C383.4,327.8 383.9,327.4 383.9,326.5C384,325.6 383.4,325.1 382.4,325.1Z" style="fill:rgb(26,23,27);fill-rule:nonzero;"/>
            <path d="M390.9,328.3C390.8,328.4 390.7,328.4 390.2,328.4L386.4,328.4L386.4,328.1C386.6,328.1 386.8,328.1 386.9,327.9C387.1,327.7 387.1,327.5 387.1,326.7C387.1,326.2 387.1,325.8 387.1,325.3L387.1,324.2C387.1,322.9 387.1,322.7 387,322.4C386.9,322.2 386.7,322 386.4,322L386.4,321.7L389,321.7L389,322C388.5,322 388.3,322.2 388.2,322.7L388.2,325.9C388.2,327.3 388.2,327.4 388.3,327.6C388.4,327.7 388.6,327.7 389,327.7C389.5,327.7 389.8,327.7 390.1,327.5C390.4,327.4 390.6,327.1 390.7,326.6L391.1,326.7C391.2,327.4 391,328.1 390.9,328.3Z" style="fill:rgb(26,23,27);fill-rule:nonzero;"/>
            <path d="M394.4,328.4L392.2,328.4L392,328.4L392,328.1C392.5,328.1 392.6,327.8 392.7,327.4C392.7,327.1 392.7,326.9 392.7,325.9L392.7,324.2C392.7,324 392.7,323.7 392.7,323.4C392.7,322.9 392.7,322.7 392.6,322.4C392.5,322.2 392.3,322 392,322L392,321.7L394.6,321.7L394.6,322C394.2,322 394,322.3 393.9,322.7L393.9,325.9C393.9,327.2 393.9,327.4 394,327.7C394.1,327.9 394.2,328.1 394.6,328.1L394.6,328.4L394.4,328.4Z" style="fill:rgb(26,23,27);fill-rule:nonzero;"/>
            <path d="M403.8,330.2C403,330.2 402.2,330 401.4,329.5C401,329.3 400.3,328.8 399.9,328.5C399.6,328.5 399.4,328.5 399.1,328.5C397.1,328.5 395.7,327.2 395.7,325.2C395.7,323.1 397.1,321.6 399.3,321.6C401.3,321.6 402.7,322.9 402.7,324.9C402.7,326.3 402,327.6 400.9,328.1C401.2,328.3 401.6,328.5 401.9,328.7C402.9,329.3 403.6,329.6 404.3,329.6C404.7,329.6 405,329.5 405.4,329.3L405.5,329.6C405.1,330.1 404.5,330.2 403.8,330.2ZM399,322.3C397.8,322.3 396.9,323.3 396.9,324.7C396.9,326.4 397.9,327.8 399.2,327.8C400.4,327.8 401.3,326.8 401.3,325.3C401.4,323.7 400.3,322.3 399,322.3Z" style="fill:rgb(26,23,27);fill-rule:nonzero;"/>
            <path d="M356.2,311.3C356.1,311.4 356,311.4 355.6,311.4L352.1,311.4L352,311.4L352,311.2C352.3,311.2 352.4,311.1 352.6,310.9C352.8,310.7 352.8,310.5 353,309.9C353.1,309.4 353.2,309.1 353.4,308.1L353.5,307.4C353.6,306.6 353.7,306.2 353.7,305.9C353.7,305.5 353.6,305.3 353.1,305.3L353.1,305.1L355.5,305.1L355.5,305.3C355.2,305.3 355.1,305.4 354.9,305.6C354.7,305.9 354.5,306.3 354.2,308.2L354.1,308.8C354,309.6 353.9,309.9 353.9,310.2C353.9,310.3 353.9,310.4 353.9,310.5C353.9,310.9 354.1,311 354.7,311C355.8,311 356.2,310.8 356.6,310L356.8,310.1C356.5,310.6 356.3,311.1 356.2,311.3Z" style="fill:rgb(26,23,27);fill-rule:nonzero;"/>
            <path d="M359.1,306.6C358.8,306.6 358.6,306.4 358.6,306.2C358.6,305.9 358.8,305.6 359.2,305.6C359.5,305.6 359.7,305.8 359.7,306C359.7,306.3 359.4,306.6 359.1,306.6ZM358,311.5C357.8,311.5 357.7,311.4 357.7,311.2C357.7,311.1 357.7,311 357.8,310.8C357.9,310.3 358.1,309.6 358.2,309.2C358.3,308.7 358.4,308.4 358.4,308.2C358.4,308.1 358.4,308 358.3,308C358.2,308 358.1,308 357.9,308.1L357.9,307.9C358.4,307.7 358.9,307.6 359.2,307.6C359.3,307.6 359.4,307.6 359.4,307.7C359.4,307.8 359.4,308.1 359.2,308.8L359.1,309.4C358.9,310.3 358.8,310.7 358.8,310.8C358.8,310.9 358.9,311 359,311C359.1,311 359.2,311 359.5,310.9L359.5,311.1C358.9,311.4 358.3,311.5 358,311.5Z" style="fill:rgb(26,23,27);fill-rule:nonzero;"/>
            <path d="M363.4,311.1C363,311.4 362.6,311.5 361.9,311.5C361.2,311.5 360.7,311.4 360.7,311.2C360.7,311.1 360.7,311 360.8,310.6L361.3,308.4C361.4,307.7 361.6,307.1 361.7,306.3C361.8,305.9 361.8,305.6 361.8,305.5C361.8,305.4 361.8,305.3 361.7,305.3C361.7,305.3 361.4,305.3 361.3,305.4L361.3,305L361.4,305C361.9,304.8 362.3,304.7 362.6,304.7C362.7,304.7 362.8,304.7 362.8,304.8C362.8,304.9 362.8,305.1 362.6,305.9L362.3,307.2C362.2,307.6 362.2,307.8 362.2,307.9C362.8,307.6 363.3,307.4 363.8,307.4C364.4,307.4 364.7,307.7 364.7,308.3C364.6,309.3 364.1,310.4 363.4,311.1ZM363.4,308C363.2,308 363,308 362.8,308.2C362.5,308.3 362.3,308.5 362.2,308.6C362.1,308.8 362,309.1 361.8,309.7C361.7,310.3 361.6,310.7 361.6,310.8C361.6,311 361.8,311.1 362.2,311.1C362.6,311.1 362.9,310.9 363.2,310.6C363.6,310.1 363.9,309.2 363.9,308.5C363.8,308.2 363.7,308 363.4,308Z" style="fill:rgb(26,23,27);fill-rule:nonzero;"/>
            <path d="M366.7,309.8C366.7,309.8 366.6,309.8 366.4,309.8C366.4,310 366.4,310.1 366.4,310.2C366.4,310.7 366.6,310.9 366.9,310.9C367.2,310.9 367.6,310.8 368.2,310.4L368.3,310.7C367.6,311.1 367.1,311.3 366.6,311.3C366,311.3 365.7,311 365.7,310.3C365.7,308.7 366.8,307.3 368,307.3C368.6,307.3 369,307.6 369,308C369,309.2 368,309.8 366.7,309.8ZM367.8,307.9C367.4,307.9 366.9,308.5 366.6,309.5L366.7,309.5C367.6,309.5 368.3,309 368.3,308.4C368.2,308.1 368,307.9 367.8,307.9Z" style="fill:rgb(26,23,27);fill-rule:nonzero;"/>
            <path d="M372.9,308.7L372.6,308.7C372.6,308.6 372.6,308.5 372.6,308.3C372.6,308.1 372.5,308 372.2,308C372.1,308 371.9,308.1 371.8,308.2C371.5,308.6 371.3,309.3 371.1,310.4L370.9,311.3C370.6,311.3 370.5,311.3 370.1,311.4C370.2,311.1 370.2,310.8 370.3,310.4L370.5,309.5C370.6,308.9 370.7,308.5 370.7,308.3C370.7,308.1 370.7,308 370.5,308C370.5,308 370.4,308 370.3,308L370.1,308.1L370.1,307.8C370.6,307.6 371.1,307.5 371.3,307.5C371.4,307.5 371.4,307.5 371.5,307.6C371.5,307.7 371.5,307.8 371.5,308C371.9,307.7 372.3,307.5 372.6,307.5C372.8,307.5 373,307.6 373.2,307.7C373,308.1 373,308.4 372.9,308.7Z" style="fill:rgb(26,23,27);fill-rule:nonzero;"/>
            <path d="M376.2,308.1L375.4,308.1L375,310.1C374.9,310.6 374.9,310.7 374.9,310.8C374.9,310.9 374.9,311 375.1,311C375.1,311 375.3,311 375.5,310.9L375.6,310.9L375.6,311.2C375.1,311.4 374.6,311.5 374.3,311.5C374.1,311.5 374,311.4 374,311.2C374,311.1 374,310.8 374.1,310.5C374.2,310.2 374.2,309.9 374.3,309.5L374.6,308.1L374.1,308.1L374.1,307.8C374.7,307.7 375,307.2 375.2,306.6L375.6,306.5L375.4,307.6L376.2,307.6L376.2,308.1Z" style="fill:rgb(26,23,27);fill-rule:nonzero;"/>
            <path d="M379.2,306.9L378.9,306.7L380.1,305.4L381,305.6L379.2,306.9ZM378.1,309.8C378.1,309.8 378,309.8 377.8,309.8C377.8,310 377.8,310.1 377.8,310.2C377.8,310.7 377.9,310.9 378.3,310.9C378.6,310.9 379,310.8 379.6,310.4L379.7,310.7C379,311.1 378.5,311.3 377.9,311.3C377.3,311.3 377,311 377,310.3C377,308.7 378.1,307.3 379.3,307.3C379.9,307.3 380.3,307.6 380.3,308C380.3,309.2 379.3,309.8 378.1,309.8ZM379.1,307.9C378.7,307.9 378.2,308.5 377.9,309.5L378,309.5C378.9,309.5 379.6,309 379.6,308.4C379.6,308.1 379.4,307.9 379.1,307.9Z" style="fill:rgb(26,23,27);fill-rule:nonzero;"/>
            <path d="M395.9,304.3L395.6,304.1L396.8,302.8L397.7,303L395.9,304.3ZM397.8,306.3L397.5,306.3C397.5,306.2 397.5,306.2 397.5,306.1C397.5,305.6 397.2,305.4 396.2,305.4C395.9,305.4 395.6,305.4 395.3,305.4C395.1,306.2 395,306.9 394.8,307.8L396.2,307.8C396.5,307.8 396.8,307.5 396.9,307.1L397.1,307.1C397,307.7 396.8,308.5 396.8,309L396.6,309L396.6,308.9C396.6,308.5 396.4,308.4 395.6,308.4C395.1,308.4 395,308.4 394.8,308.4C394.8,308.6 394.8,308.4 394.6,309.5C394.5,310 394.5,310.4 394.5,310.5C394.5,310.8 394.7,310.9 395.3,310.9C396.5,310.9 396.9,310.7 397.3,309.9L397.5,310C397.3,310.6 397.1,311.1 396.9,311.3C396.8,311.4 396.7,311.4 396.3,311.4L392.7,311.4L392.7,311.2C393,311.2 393.1,311.1 393.3,310.9C393.5,310.7 393.5,310.5 393.7,309.9C393.8,309.4 393.8,309.2 394.1,308.1L394.2,307.4C394.3,306.7 394.4,306.2 394.4,305.9C394.4,305.5 394.3,305.3 393.8,305.3L393.8,305.1L398.2,305.1C397.9,305.4 397.8,305.9 397.8,306.3Z" style="fill:rgb(26,23,27);fill-rule:nonzero;"/>
            <path d="M402.6,308.1L402,308.1C402.1,308.3 402.1,308.4 402.1,308.7C402.1,309.6 401.4,310.3 400.4,310.3C400.2,310.3 400.1,310.3 399.9,310.2C399.7,310.3 399.6,310.4 399.6,310.5C399.6,310.6 399.7,310.6 400.1,310.8L400.9,311C401.7,311.2 402,311.5 402,312C402,313 401,313.8 399.7,313.8C398.6,313.8 398,313.3 398,312.5C398,311.8 398.5,311.4 399.3,311.2C398.8,311 398.7,311 398.7,310.8C398.7,310.6 399,310.3 399.5,310C399.2,309.8 399.1,309.5 399.1,309.1C399.1,308.2 399.8,307.5 400.8,307.5C401,307.5 401.2,307.5 401.4,307.6L402.7,307.6L402.6,308.1ZM400.7,307.9C400.2,307.9 399.8,308.4 399.8,309.1C399.8,309.5 400,309.8 400.4,309.8C400.9,309.8 401.3,309.3 401.3,308.6C401.3,308.2 401.1,307.9 400.7,307.9ZM400.8,311.8C400.5,311.7 400.1,311.6 399.7,311.4C399.1,311.5 398.6,312 398.6,312.6C398.6,313.1 399,313.5 399.7,313.5C400.5,313.5 401.3,312.9 401.3,312.3C401.3,312.1 401.2,312 400.8,311.8Z" style="fill:rgb(26,23,27);fill-rule:nonzero;"/>
            <path d="M386.6,309.7C387.2,309.7 387.8,309.2 387.8,308.5C387.8,307.9 387.3,307.3 386.6,307.3C386,307.3 385.4,307.8 385.4,308.5C385.4,309.2 386,309.7 386.6,309.7Z" style="fill:rgb(26,23,27);fill-rule:nonzero;"/>
            <path d="M352.6,315.8L474.1,315.8" style="fill:none;"/>
            <rect x="352.6" y="315.6" width="121.6" height="0.4" style="fill:rgb(26,23,27);"/>
            <g>
                <path d="M352.4,299.5C352.555,291.653 352.6,259.103 352.6,258.3C355.188,258.129 357.663,258.2 360.1,258.2C376.2,258.2 392.2,258.1 408.3,258.2C407.2,258.7 405.9,259.2 405.1,260.2C404.4,261.1 403.6,262 403.3,263.2C402.1,263.9 401.4,265 400.7,266.2C399.9,267.8 398.7,269.2 398.9,270.9C399.1,272.4 399.4,273.8 399.7,275.4C399.8,275.9 399.9,276.4 400,277C400.2,277.5 400,278.2 400.3,278.7C400.5,279 400.4,279.3 400.7,279.5C400.7,279.6 400.7,279.8 400.7,279.9C400.8,280 400.8,280.1 401,280.1C401,280.2 401,280.4 401,280.5C401.7,281.4 402.7,282.3 403.1,283.3C403.3,283.8 402.2,283.6 401.7,283.4C400.8,283 400.2,282.2 399.5,281.6C399.5,281.6 399.4,281.7 399.4,281.8C399.7,282.4 401.1,283.3 400.4,283.7C400,283.9 399.6,283.4 399.2,283.8C399.1,284 399.2,284.1 399.2,284.3C398.7,284 398.1,284.1 397.5,284C397.2,283.9 397.1,283.2 396.6,283.2C395.4,282.9 394.3,282.7 393.1,282.6C391.4,282.4 389.9,282.2 388.2,282.4C386.7,282.5 385.6,283.6 384.7,284.7C384.7,284.8 384.7,285 384.7,285C385.3,285.1 385.6,284.6 386.2,284.4C387.1,284.2 387.9,283.9 388.9,283.7C390.3,283.4 391.6,283.1 392.9,283.2C393.2,283.2 393.5,283.1 393.8,283.2C392.1,283.1 390.6,283.6 389.1,284.1C388,284.4 386.9,284.4 385.9,285C388.3,284.9 390.7,285.3 393.1,286C393.9,286.3 394.7,286.6 395.4,287.1C395.8,287.4 395.9,287.6 396.3,287.8C396.7,288.1 397.4,288.1 397.9,287.9C398,287.9 398.3,287.9 398.3,287.9C399.7,287.5 401.2,287.2 402.1,286.1C402.1,286.2 402.2,286.2 402.3,286.2C402,286.9 402,287.8 401.5,288.4C401.5,288.5 401.4,288.7 401.6,288.8C401.7,288.8 401.7,288.8 401.8,288.8C401.7,288.8 401.6,288.8 401.6,288.9C401.6,289.1 401.9,288.9 402,289.1C401.6,289.2 401.1,289.3 400.8,289.6C400.8,289.7 401,289.7 401.1,289.7C400.9,289.9 400.7,289.8 400.6,290C400.6,290 400.7,290.1 400.8,290.1C400.7,290.1 400.6,290.1 400.6,290.2C400.6,290.3 400.6,290.4 400.6,290.5C400.3,290.5 400.2,290.7 400.1,290.8C400.5,291.1 400.7,290.8 401.1,290.8C400.1,291.1 399.3,291.7 398.2,292C398,292 398.2,292.3 398,292.3C398.3,292.5 398.4,292.2 398.7,292.2C397.4,292.9 396.1,293.6 394.7,294.4C394.7,294.4 394.5,294.6 394.5,294.7C394.4,294.7 394.2,294.7 394.1,294.7C393.9,294.8 394,295.1 393.8,295.2C394.2,295.5 394.8,294.9 395.1,295.2C395.2,295.2 394.9,295.3 394.7,295.3C394.6,295.3 394.6,295.5 394.5,295.5C394.4,295.5 394.3,295.5 394.2,295.5C394,295.7 393.8,295.8 393.8,296C393.6,296 393.5,296 393.4,296.2C395.4,295.9 397.6,296.1 399.5,295.1C401,294.4 402.4,293.4 403.6,292C403.6,292 403.7,292.1 403.7,292.2C403.4,293.1 402.9,293.8 402.1,294.3C401.6,294.6 401.2,295 400.7,295.2C400.4,295.4 400.2,295.6 399.9,295.7C396.5,296.9 392.4,296.3 389.4,298.7C389.4,298.6 389.3,298.6 389.2,298.6C389,298.8 388.8,298.9 388.7,299C388.7,299.2 389,299.1 389,299.1C389.5,298.8 390.1,298.5 390.8,298.3C390.1,298.6 389.3,299.2 388.6,299.4C387,299.7 385.5,299.6 384,299.4C384.9,298.9 385.8,298.2 386.9,297.7C386.6,297.5 386.4,297.5 386.1,297.5C385.7,297.6 385.1,297.3 384.6,297.5C383.2,298.1 381.4,297.9 380.6,299.4" style="fill:rgb(0,68,147);fill-rule:nonzero;"/>
                <path d="M383.8,288.3C383.5,288.3 383.3,288.6 383.4,288.7C383.7,289.1 384.2,288.6 384.7,288.6C384.2,288.8 383.5,288.7 383,289.1C383.4,289.4 383.7,289.2 384.1,289.2C384.1,289.4 384.3,289.4 384.4,289.5C384,289.7 383.6,290 383.5,290.3C383.3,290.7 382.9,290.9 382.6,291.3C382.6,291.4 382.6,291.5 382.6,291.6C381.7,292.4 380.7,293 379.9,294C380,294 380,294.1 380,294.2C379.8,294.5 379.5,294.5 379.4,294.8C379.4,294.9 379.4,295 379.5,295C380.6,294.7 381.4,293.8 382.5,293.4C383.2,293.2 383.8,292.8 384.4,292.6C384.8,292.5 385.4,292.3 385.9,292.2C385.9,292.3 385.9,292.4 386,292.4C386.3,292.4 386.4,292.4 386.7,292.4C386.6,292.6 386.3,292.5 386.4,292.6C386.7,292.9 387.2,292.8 387.6,292.6C387.9,292.4 388.1,292.4 388.5,292.4C388.6,292.4 388.6,292.2 388.6,292.1C388.9,292.2 389,292.2 389.3,292.2C391.5,291.8 393.7,291.3 395.7,290.3C393.3,288.5 390.2,287.8 387.3,287C387.6,287 387.8,287.3 388.1,287C387.7,286.7 387.1,286.8 386.6,286.6C386.7,286.6 386.9,286.7 387,286.5C386.3,286.2 385.5,286.2 384.8,286C385.2,285.9 385.5,285.6 385.5,285.1C385.5,285 385.3,285 385.2,285C384.1,285.5 383.4,286.6 382.9,287.8C383.5,288.1 384.3,287.9 384.9,288C384.6,288.2 384.2,288.2 383.8,288.3Z" style="fill:white;fill-rule:nonzero;"/>
                <path d="M380,284.6C379.1,285.6 378.1,286.5 376.8,287.2C376,288.9 375,290.4 373.8,291.9C373.8,292 373.9,292.1 373.9,292.1C376.1,289.6 378.2,287.5 381.1,285.7C381.3,285.6 380.8,286 381.2,285.9C382.4,285.6 382.8,284.4 383.3,283.5C384,282.3 385.3,281.8 386.3,280.8C386.3,280.9 386.3,281 386.2,281.1C386.3,281.2 386.4,281.2 386.5,281.2C386.8,280.9 387.3,281 387.6,280.7C386.9,280.4 385.9,280.4 385.2,280.6C383.2,281.5 381.6,282.9 380,284.6Z" style="fill:white;fill-rule:nonzero;"/>
                <path d="M381.4,286.4C381.5,286.3 381.6,286.2 381.7,286C381.7,285.9 381.7,285.8 381.6,285.8C381.3,285.9 381,286.2 380.9,286.6C380.9,286.7 381,286.7 381.1,286.7C381.2,286.7 381.3,286.6 381.4,286.4Z" style="fill:white;fill-rule:nonzero;"/>
                <path d="M388.9,293.5C388.5,293.7 387.9,293.7 387.8,294.1C387.7,294.3 388.1,294.2 388.2,294.2C388.8,293.9 389.6,294.2 390.1,293.7C389.9,293.5 389.7,293.6 389.5,293.4C389.3,293.2 389,293.4 388.9,293.5Z" style="fill:white;fill-rule:nonzero;"/>
                <path d="M398.9,298.5C399.5,298.4 400,298.1 400.6,297.9C400.6,298 400.6,298 400.6,298.1C402,297.6 403,296.3 404.4,295.9C404.5,295.9 404.7,296.1 404.8,296C405.6,295.3 406.5,294.4 407.8,294.6C407.8,294.7 407.8,294.8 407.9,294.8C408,294.8 408.1,294.8 408.1,294.7C407.8,295 407.4,295.2 407,295.5C406.9,295.6 407,295.7 407.1,295.7C407.5,295.5 407.8,295.2 408.3,295C408.2,295.1 408.2,295.3 408.1,295.3C406.4,296.6 405,298.1 403.6,299.7C402.7,299.7 401.7,299.7 400.7,299.7C400.7,299.6 400.7,299.5 400.6,299.5C397.4,299.8 394.2,299.7 391,299.7C392.8,299.4 394.7,298.9 396.6,298.7C397.4,298.6 398.2,298.7 398.9,298.5Z" style="fill:rgb(0,76,152);fill-rule:nonzero;"/>
                <path d="M435.6,293.7C435.8,293 436,292.3 435.7,291.7C435.2,290.9 436.2,290.6 436.6,290C436.9,289.6 436.4,289.3 436.3,288.8C436.2,288.6 435.9,288.7 435.7,288.4C436.3,288.1 437.4,287.6 436.9,286.7C436.6,286.3 436.2,285.5 436.7,285C437.3,284.7 438.4,284.7 438.6,284.1C439,283 438.1,282.1 437.5,281.1C437.2,280.6 436.9,280.2 436.5,279.6C436.2,279 435.7,278.4 435.5,277.7C435.2,277 435.6,276.3 435.6,275.6C435.7,274.2 435.3,272.8 435,271.4C434.7,270.8 434.6,270 434.4,269.4C434.3,269 434.2,268.7 434,268.3C433.9,268.1 433.9,267.9 434,267.7C434.3,267.4 434.7,267.2 435.1,266.8C435.4,266.4 435.2,265.7 434.7,265.4C434.1,265.1 434.2,266 433.7,266.2C433.6,266.2 433.5,266.2 433.4,266.2C433.3,265.9 433.5,265.9 433.7,265.7C433.7,265.6 433.7,265.4 433.6,265.4C433.3,265.4 432.9,265.3 432.8,265.1C431.9,263.8 430.6,263.2 429.2,262.6C429.6,262.7 429.9,262.8 430.3,262.8C430.9,262.9 431.7,262.9 432.2,262.6C432.6,262.4 432.7,261.7 432.9,261.2C433.1,260.9 432.8,260.3 432.6,260C432.2,259.3 431.4,258.8 430.7,258.4C445.4,258.4 460.1,258.4 474.7,258.4C474.8,272.2 474.6,285.9 474.5,299.7C457.1,300 439.8,299.7 422.4,299.7C422.9,297.9 424,296.1 425.6,294.9C425.9,294.7 426.4,294.6 426.9,294.5C428.5,294.5 430.1,294.9 431.6,295.1C431.8,295.1 431.9,295.2 432.1,295.3C432.6,295.4 433.3,295.4 433.8,295.2C434.6,295 435.3,294.6 435.6,293.7Z" style="fill:rgb(225,0,26);fill-rule:nonzero;"/>
                <path d="M432,275.4C431.5,275.3 431,275.4 430.4,275.4C429.7,275.6 429,275.7 428.4,275.9C428.9,275.6 429.5,275.2 430.2,275C430.6,274.9 431.1,274.6 431.6,274.6C432.1,274.5 432.7,274.3 433.2,274.5C433.6,274.7 434.4,274.7 434.5,274.9C434.7,275.4 434.2,276 433.7,276.4C433.6,276.6 434,276.7 434,276.8C433.9,277 433.7,277.1 433.5,277.1C433.3,277.2 433.2,277.4 433,277.6C433.2,277.6 433,277.9 433.2,277.9C432.9,278.3 433.4,279.3 432.9,279.5C432.3,279.7 431.5,279.7 430.8,279.5C431.2,279.4 431.6,279.6 431.9,279.2C431.9,279.1 431.9,278.9 431.9,278.8C431.9,278.7 431.8,278.7 431.7,278.7C431.6,278.8 431.5,278.8 431.5,278.8C431.5,278.6 431.3,278.5 431.2,278.5C430.7,278.6 430.2,278.3 429.8,278C430.1,277.9 430.3,277.8 430.6,277.9C430.9,277.9 430.8,277.5 431,277.3C431.1,277.3 431.2,277.3 431.3,277.3C431.8,276.6 433,276.4 433.1,275.6C433,275.5 432.4,275.5 432,275.4Z" style="fill:rgb(155,156,158);fill-rule:nonzero;"/>
            </g>
        </g>
    </g>
</svg>
